<?xml version="1.0" encoding="utf-8" ?>
<svg baseProfile="full" height="596" version="1.1" width="467.91999999999996" xmlns="http://www.w3.org/2000/svg" xmlns:ev="http://www.w3.org/2001/xml-events" xmlns:xlink="http://www.w3.org/1999/xlink"><defs><marker id="id1" markerHeight="6" markerWidth="6" orient="auto" refX="5" refY="3"><path d="M0,0 L6,3 L0,6 Z" fill="black" /></marker></defs><rect fill="white" height="100%" width="100%" x="0" y="0" /><line stroke="black" stroke-width="2" x1="417.91999999999996" x2="417.91999999999996" y1="90" y2="50" /><polygon fill="black" points="412.91999999999996,55 422.91999999999996,55 417.91999999999996,45" /><text font-size="12" font-weight="bold" x="417.91999999999996" y="65">N</text><rect fill="none" height="496" stroke="black" stroke-dasharray="4,4" stroke-width="2" width="184" x="50" y="50" /><text font-family="sans-serif" font-size="12" x="55" y="576">Lot 1</text><line marker-end="url(#id1)" marker-start="url(#id1)" stroke="black" stroke-width="1" x1="50" x2="234" y1="566" y2="566" /><text font-family="sans-serif" font-size="10" text-anchor="middle" x="142.0" y="561">46'</text><line marker-end="url(#id1)" marker-start="url(#id1)" stroke="black" stroke-width="1" x1="254" x2="254" y1="50" y2="546" /><text font-family="sans-serif" font-size="10" text-anchor="middle" transform="rotate(-90,259,298.0)" x="259" y="298.0">124'</text><rect fill="grey" fill-opacity="0.15" height="72" stroke="none" width="184" x="50" y="474" /><rect fill="grey" fill-opacity="0.15" height="88" stroke="none" width="184" x="50" y="50" /><rect fill="grey" fill-opacity="0.15" height="496" stroke="none" width="32" x="50" y="50" /><rect fill="grey" fill-opacity="0.15" height="496" stroke="none" width="20" x="214" y="50" /><line fill="none" stroke="black" stroke-dasharray="4,4" stroke-width="1" x1="50" x2="234" y1="474" y2="474" /><line fill="none" stroke="black" stroke-dasharray="4,4" stroke-width="1" x1="50" x2="234" y1="138" y2="138" /><line fill="none" stroke="black" stroke-dasharray="4,4" stroke-width="1" x1="82" x2="82" y1="50" y2="546" /><line fill="none" stroke="black" stroke-dasharray="4,4" stroke-width="1" x1="214" x2="214" y1="50" y2="546" /><line marker-end="url(#id1)" marker-start="url(#id1)" stroke="black" stroke-width="1" x1="67" x2="67" y1="474" y2="546" /><text font-family="sans-serif" font-size="10" text-anchor="middle" transform="rotate(-90,72,510.0)" x="72" y="510.0">18'</text><line marker-end="url(#id1)" marker-start="url(#id1)" stroke="black" stroke-width="1" x1="67" x2="67" y1="50" y2="138" /><text font-family="sans-serif" font-size="10" text-anchor="middle" transform="rotate(-90,72,94.0)" x="72" y="94.0">22'</text><line marker-end="url(#id1)" marker-start="url(#id1)" stroke="black" stroke-width="1" x1="50" x2="82" y1="489" y2="489" /><text font-family="sans-serif" font-size="10" text-anchor="middle" x="66.0" y="484">8'</text><line marker-end="url(#id1)" marker-start="url(#id1)" stroke="black" stroke-width="1" x1="214" x2="234" y1="489" y2="489" /><text font-family="sans-serif" font-size="10" text-anchor="middle" x="224.0" y="484">5'</text><rect fill="#dddddd" height="112" stroke="black" stroke-width="2" width="132" x="82" y="362" /><text alignment-baseline="middle" font-family="sans-serif" font-size="12" text-anchor="middle" x="148.0" y="418.0">Front Unit</text><line marker-end="url(#id1)" marker-start="url(#id1)" stroke="black" stroke-width="1" x1="82" x2="214" y1="352" y2="352" /><text font-family="sans-serif" font-size="10" text-anchor="middle" x="148.0" y="347">33'</text><line marker-end="url(#id1)" marker-start="url(#id1)" stroke="black" stroke-width="1" x1="72" x2="72" y1="362" y2="474" /><text font-family="sans-serif" font-size="10" text-anchor="middle" transform="rotate(-90,77,418.0)" x="77" y="418.0">28'</text><rect fill="#dddddd" height="80" stroke="black" stroke-width="2" width="120" x="82.0" y="138" /><text alignment-baseline="middle" font-family="sans-serif" font-size="12" text-anchor="middle" x="142.0" y="178.0">Garage/ADU</text><line marker-end="url(#id1)" marker-start="url(#id1)" stroke="black" stroke-width="1" x1="82.0" x2="202.0" y1="128" y2="128" /><text font-family="sans-serif" font-size="10" text-anchor="middle" x="142.0" y="123">30'</text><line marker-end="url(#id1)" marker-start="url(#id1)" stroke="black" stroke-width="1" x1="72.0" x2="72.0" y1="138" y2="218" /><text font-family="sans-serif" font-size="10" text-anchor="middle" transform="rotate(-90,77.0,178.0)" x="77.0" y="178.0">20'</text><line marker-end="url(#id1)" marker-start="url(#id1)" stroke="black" stroke-width="1" x1="222.0" x2="222.0" y1="218" y2="362" /><text font-family="sans-serif" font-size="10" text-anchor="middle" transform="rotate(-90,227.0,290.0)" x="227.0" y="290.0">20'</text><rect fill="#eeeeee" height="80" stroke="black" stroke-width="1" width="36" x="86.0" y="50" /><text font-family="sans-serif" font-size="10" text-anchor="middle" x="104.0" y="62">P</text><line stroke="black" stroke-width="1" x1="122.0" x2="122.0" y1="50" y2="130" /><rect fill="#eeeeee" height="80" stroke="black" stroke-width="1" width="36" x="122.0" y="50" /><text font-family="sans-serif" font-size="10" text-anchor="middle" x="140.0" y="62">P</text><line stroke="black" stroke-width="1" x1="158.0" x2="158.0" y1="50" y2="130" /><rect fill="#eeeeee" height="80" stroke="black" stroke-width="1" width="36" x="158.0" y="50" /><text font-family="sans-serif" font-size="10" text-anchor="middle" x="176.0" y="62">P</text><line stroke="black" stroke-width="1" x1="194.0" x2="194.0" y1="50" y2="130" /><rect fill="none" height="36" stroke="black" stroke-dasharray="2,2" stroke-width="1" width="16" x="194.0" y="50" /><text font-family="sans-serif" font-size="10" text-anchor="middle" x="202.0" y="62">T</text><line stroke="black" stroke-width="1" x1="210.0" x2="210.0" y1="50" y2="130" /><line marker-end="url(#id1)" marker-start="url(#id1)" stroke="black" stroke-width="1" x1="86.0" x2="210.0" y1="40" y2="40" /><text font-family="sans-serif" font-size="10" text-anchor="middle" x="148.0" y="35">31'</text><line marker-end="url(#id1)" marker-start="url(#id1)" stroke="black" stroke-width="1" x1="76.0" x2="76.0" y1="50" y2="130" /><text font-family="sans-serif" font-size="10" text-anchor="middle" transform="rotate(-90,81.0,90.0)" x="81.0" y="90.0">20'</text><rect fill="none" height="496" stroke="black" stroke-dasharray="4,4" stroke-width="2" width="183.92" x="234" y="50" /><text font-family="sans-serif" font-size="12" x="239" y="576">Lot 2</text><line marker-end="url(#id1)" marker-start="url(#id1)" stroke="black" stroke-width="1" x1="234" x2="417.91999999999996" y1="566" y2="566" /><text font-family="sans-serif" font-size="10" text-anchor="middle" x="325.96" y="561">45.98'</text><line marker-end="url(#id1)" marker-start="url(#id1)" stroke="black" stroke-width="1" x1="437.91999999999996" x2="437.91999999999996" y1="50" y2="546" /><text font-family="sans-serif" font-size="10" text-anchor="middle" transform="rotate(-90,442.91999999999996,298.0)" x="442.91999999999996" y="298.0">124'</text><rect fill="grey" fill-opacity="0.15" height="72" stroke="none" width="183.92" x="234" y="474" /><rect fill="grey" fill-opacity="0.15" height="88" stroke="none" width="183.92" x="234" y="50" /><rect fill="grey" fill-opacity="0.15" height="496" stroke="none" width="20" x="234" y="50" /><rect fill="grey" fill-opacity="0.15" height="496" stroke="none" width="32" x="385.91999999999996" y="50" /><line fill="none" stroke="black" stroke-dasharray="4,4" stroke-width="1" x1="234" x2="417.91999999999996" y1="474" y2="474" /><line fill="none" stroke="black" stroke-dasharray="4,4" stroke-width="1" x1="234" x2="417.91999999999996" y1="138" y2="138" /><line fill="none" stroke="black" stroke-dasharray="4,4" stroke-width="1" x1="254" x2="254" y1="50" y2="546" /><line fill="none" stroke="black" stroke-dasharray="4,4" stroke-width="1" x1="385.91999999999996" x2="385.91999999999996" y1="50" y2="546" /><line marker-end="url(#id1)" marker-start="url(#id1)" stroke="black" stroke-width="1" x1="239" x2="239" y1="474" y2="546" /><text font-family="sans-serif" font-size="10" text-anchor="middle" transform="rotate(-90,244,510.0)" x="244" y="510.0">18'</text><line marker-end="url(#id1)" marker-start="url(#id1)" stroke="black" stroke-width="1" x1="239" x2="239" y1="50" y2="138" /><text font-family="sans-serif" font-size="10" text-anchor="middle" transform="rotate(-90,244,94.0)" x="244" y="94.0">22'</text><line marker-end="url(#id1)" marker-start="url(#id1)" stroke="black" stroke-width="1" x1="234" x2="254" y1="489" y2="489" /><text font-family="sans-serif" font-size="10" text-anchor="middle" x="244.0" y="484">5'</text><line marker-end="url(#id1)" marker-start="url(#id1)" stroke="black" stroke-width="1" x1="385.91999999999996" x2="417.91999999999996" y1="489" y2="489" /><text font-family="sans-serif" font-size="10" text-anchor="middle" x="401.91999999999996" y="484">8'</text><rect fill="#dddddd" height="112" stroke="black" stroke-width="2" width="132" x="254" y="362" /><text alignment-baseline="middle" font-family="sans-serif" font-size="12" text-anchor="middle" x="320.0" y="418.0">Front Unit</text><line marker-end="url(#id1)" marker-start="url(#id1)" stroke="black" stroke-width="1" x1="254" x2="386" y1="352" y2="352" /><text font-family="sans-serif" font-size="10" text-anchor="middle" x="320.0" y="347">33'</text><line marker-end="url(#id1)" marker-start="url(#id1)" stroke="black" stroke-width="1" x1="244" x2="244" y1="362" y2="474" /><text font-family="sans-serif" font-size="10" text-anchor="middle" transform="rotate(-90,249,418.0)" x="249" y="418.0">28'</text><rect fill="#dddddd" height="80" stroke="black" stroke-width="2" width="120" x="265.96" y="138" /><text alignment-baseline="middle" font-family="sans-serif" font-size="12" text-anchor="middle" x="325.96" y="178.0">Garage/ADU</text><line marker-end="url(#id1)" marker-start="url(#id1)" stroke="black" stroke-width="1" x1="265.96" x2="385.96" y1="128" y2="128" /><text font-family="sans-serif" font-size="10" text-anchor="middle" x="325.96" y="123">30'</text><line marker-end="url(#id1)" marker-start="url(#id1)" stroke="black" stroke-width="1" x1="255.95999999999998" x2="255.95999999999998" y1="138" y2="218" /><text font-family="sans-serif" font-size="10" text-anchor="middle" transform="rotate(-90,260.96,178.0)" x="260.96" y="178.0">20'</text><line marker-end="url(#id1)" marker-start="url(#id1)" stroke="black" stroke-width="1" x1="405.96" x2="405.96" y1="218" y2="362" /><text font-family="sans-serif" font-size="10" text-anchor="middle" transform="rotate(-90,410.96,290.0)" x="410.96" y="290.0">20'</text><rect fill="#eeeeee" height="80" stroke="black" stroke-width="1" width="36" x="257.96" y="50" /><text font-family="sans-serif" font-size="10" text-anchor="middle" x="275.96" y="62">P</text><line stroke="black" stroke-width="1" x1="293.96" x2="293.96" y1="50" y2="130" /><rect fill="#eeeeee" height="80" stroke="black" stroke-width="1" width="36" x="293.96" y="50" /><text font-family="sans-serif" font-size="10" text-anchor="middle" x="311.96" y="62">P</text><line stroke="black" stroke-width="1" x1="329.96" x2="329.96" y1="50" y2="130" /><rect fill="#eeeeee" height="80" stroke="black" stroke-width="1" width="36" x="329.96" y="50" /><text font-family="sans-serif" font-size="10" text-anchor="middle" x="347.96" y="62">P</text><line stroke="black" stroke-width="1" x1="365.96" x2="365.96" y1="50" y2="130" /><rect fill="none" height="36" stroke="black" stroke-dasharray="2,2" stroke-width="1" width="16" x="365.96" y="50" /><text font-family="sans-serif" font-size="10" text-anchor="middle" x="373.96" y="62">T</text><line stroke="black" stroke-width="1" x1="381.96" x2="381.96" y1="50" y2="130" /><line marker-end="url(#id1)" marker-start="url(#id1)" stroke="black" stroke-width="1" x1="257.96" x2="381.96" y1="40" y2="40" /><text font-family="sans-serif" font-size="10" text-anchor="middle" x="319.96" y="35">31'</text><line marker-end="url(#id1)" marker-start="url(#id1)" stroke="black" stroke-width="1" x1="247.95999999999998" x2="247.95999999999998" y1="50" y2="130" /><text font-family="sans-serif" font-size="10" text-anchor="middle" transform="rotate(-90,252.95999999999998,90.0)" x="252.95999999999998" y="90.0">20'</text><rect fill="none" height="64" stroke="gray" stroke-width="1" width="367.91999999999996" x="50" y="-14" /><text font-family="sans-serif" font-size="12" text-anchor="middle" x="233.95999999999998" y="18">Alley – 16' wide</text><line marker-end="url(#id1)" marker-start="url(#id1)" stroke="black" stroke-width="1" x1="233.95999999999998" x2="233.95999999999998" y1="-14" y2="50" /><text font-family="sans-serif" font-size="10" text-anchor="middle" transform="rotate(-90,238.95999999999998,18.0)" x="238.95999999999998" y="18.0">16'</text><rect fill="none" height="240" stroke="gray" stroke-width="1" width="367.91999999999996" x="50" y="546" /><text font-family="sans-serif" font-size="12" text-anchor="middle" x="233.95999999999998" y="666">22nd Ave S – 60' wide</text><line marker-end="url(#id1)" marker-start="url(#id1)" stroke="black" stroke-width="1" x1="437.91999999999996" x2="437.91999999999996" y1="546" y2="786" /><text font-family="sans-serif" font-size="10" text-anchor="middle" transform="rotate(-90,442.91999999999996,666.0)" x="442.91999999999996" y="666.0">60'</text><rect fill="none" height="496" stroke="gray" stroke-width="1" width="200" x="417.91999999999996" y="50" /><text font-family="sans-serif" font-size="12" text-anchor="middle" transform="rotate(-90,517.92,298.0)" x="517.92" y="298.0">27th St S – 50' wide</text><line marker-end="url(#id1)" marker-start="url(#id1)" stroke="black" stroke-width="1" x1="417.91999999999996" x2="617.92" y1="566" y2="566" /><text font-family="sans-serif" font-size="10" text-anchor="middle" x="517.92" y="561">50'</text><line marker-end="url(#id1)" marker-start="url(#id1)" stroke="black" stroke-width="1" x1="424.91999999999996" x2="424.91999999999996" y1="50" y2="546" /><text font-family="sans-serif" font-size="10" text-anchor="middle" transform="rotate(-90,429.91999999999996,298.0)" x="429.91999999999996" y="298.0">124'</text><rect fill="#dddddd" height="12" stroke="black" stroke-width="2" width="20" x="297.91999999999996" y="586" /><text font-family="sans-serif" font-size="10" x="322.91999999999996" y="596">Front Unit</text><rect fill="#dddddd" height="12" stroke="black" stroke-width="2" width="20" x="297.91999999999996" y="604" /><text font-family="sans-serif" font-size="10" x="322.91999999999996" y="614">Garage/ADU</text><rect fill="#eeeeee" height="12" stroke="black" stroke-width="1" width="20" x="297.91999999999996" y="622" /><text font-family="sans-serif" font-size="10" x="322.91999999999996" y="632">Parking</text><rect fill="none" height="12" stroke="black" stroke-dasharray="2,2" stroke-width="1" width="20" x="297.91999999999996" y="640" /><text font-family="sans-serif" font-size="10" x="322.91999999999996" y="650">Trash</text><text font-family="sans-serif" font-size="10" x="297.91999999999996" y="666">P = Parking Stall (9' x 20')</text><text font-family="sans-serif" font-size="10" x="297.91999999999996" y="678">T = Trash Pad (4' x 9')</text><text font-family="sans-serif" font-size="10" x="297.91999999999996" y="690">F = Front Unit (2-story)</text><text font-family="sans-serif" font-size="10" x="297.91999999999996" y="702">A = Garage/ADU (1 bed over garage)</text><text font-family="sans-serif" font-size="10" x="297.91999999999996" y="714">D = Driveway</text><text font-family="sans-serif" font-size="10" x="297.91999999999996" y="726">Dashed Line = Setback</text><text font-family="sans-serif" font-size="10" x="297.91999999999996" y="738">Solid Line = Structure</text></svg>
