<?xml version="1.0" encoding="utf-8" ?>
<svg baseProfile="full" height="596" version="1.1" width="467.91999999999996" xmlns="http://www.w3.org/2000/svg" xmlns:ev="http://www.w3.org/2001/xml-events" xmlns:xlink="http://www.w3.org/1999/xlink"><defs><marker id="id1" markerHeight="6" markerWidth="6" orient="auto" refX="5" refY="3"><path d="M0,0 L6,3 L0,6 Z" fill="black" /></marker></defs><rect fill="white" height="100%" width="100%" x="0" y="0" /><line stroke="black" stroke-width="2" x1="417.91999999999996" x2="417.91999999999996" y1="90" y2="50" /><polygon fill="black" points="412.91999999999996,55 422.91999999999996,55 417.91999999999996,45" /><text font-size="12" font-weight="bold" x="417.91999999999996" y="65">N</text><rect fill="none" height="496" stroke="black" stroke-dasharray="4,4" stroke-width="2" width="184" x="50" y="50" /><text font-family="sans-serif" font-size="12" x="55" y="576">Lot 1</text><line marker-end="url(#id1)" marker-start="url(#id1)" stroke="black" stroke-width="1" x1="50" x2="234" y1="566" y2="566" /><text font-family="sans-serif" font-size="10" text-anchor="middle" x="142.0" y="561">46'</text><line marker-end="url(#id1)" marker-start="url(#id1)" stroke="black" stroke-width="1" x1="254" x2="254" y1="50" y2="546" /><text font-family="sans-serif" font-size="10" text-anchor="middle" transform="rotate(-90,259,298.0)" x="259" y="298.0">124'</text><rect fill="grey" fill-opacity="0.15" height="72" stroke="none" width="184" x="50" y="474" /><rect fill="grey" fill-opacity="0.15" height="88" stroke="none" width="184" x="50" y="50" /><rect fill="grey" fill-opacity="0.15" height="496" stroke="none" width="32" x="50" y="50" /><rect fill="grey" fill-opacity="0.15" height="496" stroke="none" width="20" x="214" y="50" /><line fill="none" stroke="black" stroke-dasharray="4,4" stroke-width="1" x1="50" x2="234" y1="474" y2="474" /><line fill="none" stroke="black" stroke-dasharray="4,4" stroke-width="1" x1="50" x2="234" y1="138" y2="138" /><line fill="none" stroke="black" stroke-dasharray="4,4" stroke-width="1" x1="82" x2="82" y1="50" y2="546" /><line fill="none" stroke="black" stroke-dasharray="4,4" stroke-width="1" x1="214" x2="214" y1="50" y2="546" /><line marker-end="url(#id1)" marker-start="url(#id1)" stroke="black" stroke-width="1" x1="67" x2="67" y1="474" y2="546" /><text font-family="sans-serif" font-size="10" text-anchor="middle" transform="rotate(-90,72,510.0)" x="72" y="510.0">18'</text><line marker-end="url(#id1)" marker-start="url(#id1)" stroke="black" stroke-width="1" x1="67" x2="67" y1="50" y2="138" /><text font-family="sans-serif" font-size="10" text-anchor="middle" transform="rotate(-90,72,94.0)" x="72" y="94.0">22'</text><line marker-end="url(#id1)" marker-start="url(#id1)" stroke="black" stroke-width="1" x1="50" x2="82" y1="489" y2="489" /><text font-family="sans-serif" font-size="10" text-anchor="middle" x="66.0" y="484">8'</text><line marker-end="url(#id1)" marker-start="url(#id1)" stroke="black" stroke-width="1" x1="214" x2="234" y1="489" y2="489" /><text font-family="sans-serif" font-size="10" text-anchor="middle" x="224.0" y="484">5'</text><rect fill="#dddddd" height="112" stroke="black" stroke-width="2" width="132" x="82" y="362" /><line stroke="black" stroke-width="1" x1="148.0" x2="148.0" y1="362" y2="474" /><rect fill="white" height="14" width="136.0" x="80.0" y="406.0" /><text font-family="sans-serif" font-size="10" text-anchor="middle" x="148.0" y="418.0">Front Duplex – 2 Story</text><rect fill="white" height="12" width="32.8" x="98.6" y="408.0" /><text font-family="sans-serif" font-size="8" text-anchor="middle" x="115.0" y="418.0">Unit 1</text><rect fill="white" height="12" width="32.8" x="164.6" y="408.0" /><text font-family="sans-serif" font-size="8" text-anchor="middle" x="181.0" y="418.0">Unit 2</text><line marker-end="url(#id1)" marker-start="url(#id1)" stroke="black" stroke-width="1" x1="82" x2="214" y1="352" y2="352" /><text font-family="sans-serif" font-size="10" text-anchor="middle" x="148.0" y="347">33'</text><line marker-end="url(#id1)" marker-start="url(#id1)" stroke="black" stroke-width="1" x1="72" x2="72" y1="362" y2="474" /><text font-family="sans-serif" font-size="10" text-anchor="middle" transform="rotate(-90,77,418.0)" x="77" y="418.0">28'</text><rect fill="#dddddd" height="80" stroke="black" stroke-width="2" width="120" x="82.0" y="138" /><rect fill="white" height="14" width="124.0" x="80.0" y="166.0" /><text font-family="sans-serif" font-size="10" text-anchor="middle" x="142.0" y="178.0">Garage/ADU – 2 Story</text><line marker-end="url(#id1)" marker-start="url(#id1)" stroke="black" stroke-width="1" x1="82.0" x2="202.0" y1="128" y2="128" /><text font-family="sans-serif" font-size="10" text-anchor="middle" x="142.0" y="123">30'</text><line marker-end="url(#id1)" marker-start="url(#id1)" stroke="black" stroke-width="1" x1="72.0" x2="72.0" y1="138" y2="218" /><text font-family="sans-serif" font-size="10" text-anchor="middle" transform="rotate(-90,77.0,178.0)" x="77.0" y="178.0">20'</text><line marker-end="url(#id1)" marker-start="url(#id1)" stroke="black" stroke-width="1" x1="222.0" x2="222.0" y1="218" y2="362" /><text font-family="sans-serif" font-size="10" text-anchor="middle" transform="rotate(-90,227.0,290.0)" x="227.0" y="290.0">20'</text><rect fill="#eeeeee" height="80" stroke="black" stroke-width="1" width="36" x="82.0" y="50" /><rect fill="white" height="12" width="8.8" x="95.6" y="80.0" /><text font-family="sans-serif" font-size="8" text-anchor="middle" x="100.0" y="90.0">P</text><line marker-end="url(#id1)" marker-start="url(#id1)" stroke="black" stroke-width="1" x1="82.0" x2="118.0" y1="142" y2="142" /><text font-family="sans-serif" font-size="10" text-anchor="middle" x="100.0" y="137">9'</text><line stroke="black" stroke-width="1" x1="118.0" x2="118.0" y1="50" y2="130" /><rect fill="#eeeeee" height="80" stroke="black" stroke-width="1" width="36" x="118.0" y="50" /><rect fill="white" height="12" width="8.8" x="131.6" y="80.0" /><text font-family="sans-serif" font-size="8" text-anchor="middle" x="136.0" y="90.0">P</text><line stroke="black" stroke-width="1" x1="154.0" x2="154.0" y1="50" y2="130" /><rect fill="#eeeeee" height="80" stroke="black" stroke-width="1" width="36" x="154.0" y="50" /><rect fill="white" height="12" width="8.8" x="167.6" y="80.0" /><text font-family="sans-serif" font-size="8" text-anchor="middle" x="172.0" y="90.0">P</text><line stroke="black" stroke-width="1" x1="190.0" x2="190.0" y1="50" y2="130" /><rect fill="none" height="80" stroke="black" stroke-dasharray="2,2" stroke-width="1" width="24" x="190.0" y="50" /><rect fill="white" height="12" width="8.8" x="197.6" y="80.0" /><text font-family="sans-serif" font-size="8" text-anchor="middle" x="202.0" y="90.0">T</text><line marker-end="url(#id1)" marker-start="url(#id1)" stroke="black" stroke-width="1" x1="190.0" x2="214.0" y1="142" y2="142" /><text font-family="sans-serif" font-size="10" text-anchor="middle" x="202.0" y="137">6'</text><line stroke="black" stroke-width="1" x1="214.0" x2="214.0" y1="50" y2="130" /><line marker-end="url(#id1)" marker-start="url(#id1)" stroke="black" stroke-width="1" x1="226.0" x2="226.0" y1="50" y2="130" /><text font-family="sans-serif" font-size="10" text-anchor="middle" transform="rotate(-90,231.0,90.0)" x="231.0" y="90.0">20'</text><rect fill="none" height="88" stroke="black" stroke-dasharray="4,2" stroke-width="1" width="8" x="138.0" y="50" /><line marker-end="url(#id1)" marker-start="url(#id1)" stroke="black" stroke-width="1" x1="138.0" x2="146.0" y1="94.0" y2="94.0" /><text font-family="sans-serif" font-size="10" text-anchor="middle" x="142.0" y="89.0">2'</text><line marker-end="url(#id1)" marker-start="url(#id1)" stroke="black" stroke-width="1" x1="82.0" x2="214.0" y1="40" y2="40" /><text font-family="sans-serif" font-size="10" text-anchor="middle" x="148.0" y="35">33'</text><line marker-end="url(#id1)" marker-start="url(#id1)" stroke="black" stroke-width="1" x1="72.0" x2="72.0" y1="50" y2="130" /><text font-family="sans-serif" font-size="10" text-anchor="middle" transform="rotate(-90,77.0,90.0)" x="77.0" y="90.0">20'</text><rect fill="none" height="496" stroke="black" stroke-dasharray="4,4" stroke-width="2" width="183.92" x="234" y="50" /><text font-family="sans-serif" font-size="12" x="239" y="576">Lot 2</text><line marker-end="url(#id1)" marker-start="url(#id1)" stroke="black" stroke-width="1" x1="234" x2="417.91999999999996" y1="566" y2="566" /><text font-family="sans-serif" font-size="10" text-anchor="middle" x="325.96" y="561">45.98'</text><line marker-end="url(#id1)" marker-start="url(#id1)" stroke="black" stroke-width="1" x1="437.91999999999996" x2="437.91999999999996" y1="50" y2="546" /><text font-family="sans-serif" font-size="10" text-anchor="middle" transform="rotate(-90,442.91999999999996,298.0)" x="442.91999999999996" y="298.0">124'</text><rect fill="grey" fill-opacity="0.15" height="72" stroke="none" width="183.92" x="234" y="474" /><rect fill="grey" fill-opacity="0.15" height="88" stroke="none" width="183.92" x="234" y="50" /><rect fill="grey" fill-opacity="0.15" height="496" stroke="none" width="20" x="234" y="50" /><rect fill="grey" fill-opacity="0.15" height="496" stroke="none" width="32" x="385.91999999999996" y="50" /><line fill="none" stroke="black" stroke-dasharray="4,4" stroke-width="1" x1="234" x2="417.91999999999996" y1="474" y2="474" /><line fill="none" stroke="black" stroke-dasharray="4,4" stroke-width="1" x1="234" x2="417.91999999999996" y1="138" y2="138" /><line fill="none" stroke="black" stroke-dasharray="4,4" stroke-width="1" x1="254" x2="254" y1="50" y2="546" /><line fill="none" stroke="black" stroke-dasharray="4,4" stroke-width="1" x1="385.91999999999996" x2="385.91999999999996" y1="50" y2="546" /><line marker-end="url(#id1)" marker-start="url(#id1)" stroke="black" stroke-width="1" x1="239" x2="239" y1="474" y2="546" /><text font-family="sans-serif" font-size="10" text-anchor="middle" transform="rotate(-90,244,510.0)" x="244" y="510.0">18'</text><line marker-end="url(#id1)" marker-start="url(#id1)" stroke="black" stroke-width="1" x1="239" x2="239" y1="50" y2="138" /><text font-family="sans-serif" font-size="10" text-anchor="middle" transform="rotate(-90,244,94.0)" x="244" y="94.0">22'</text><line marker-end="url(#id1)" marker-start="url(#id1)" stroke="black" stroke-width="1" x1="234" x2="254" y1="489" y2="489" /><text font-family="sans-serif" font-size="10" text-anchor="middle" x="244.0" y="484">5'</text><line marker-end="url(#id1)" marker-start="url(#id1)" stroke="black" stroke-width="1" x1="385.91999999999996" x2="417.91999999999996" y1="489" y2="489" /><text font-family="sans-serif" font-size="10" text-anchor="middle" x="401.91999999999996" y="484">8'</text><rect fill="#dddddd" height="112" stroke="black" stroke-width="2" width="132" x="254" y="362" /><line stroke="black" stroke-width="1" x1="320.0" x2="320.0" y1="362" y2="474" /><rect fill="white" height="14" width="136.0" x="252.0" y="406.0" /><text font-family="sans-serif" font-size="10" text-anchor="middle" x="320.0" y="418.0">Front Duplex – 2 Story</text><rect fill="white" height="12" width="32.8" x="270.6" y="408.0" /><text font-family="sans-serif" font-size="8" text-anchor="middle" x="287.0" y="418.0">Unit 3</text><rect fill="white" height="12" width="32.8" x="336.6" y="408.0" /><text font-family="sans-serif" font-size="8" text-anchor="middle" x="353.0" y="418.0">Unit 4</text><line marker-end="url(#id1)" marker-start="url(#id1)" stroke="black" stroke-width="1" x1="254" x2="386" y1="352" y2="352" /><text font-family="sans-serif" font-size="10" text-anchor="middle" x="320.0" y="347">33'</text><line marker-end="url(#id1)" marker-start="url(#id1)" stroke="black" stroke-width="1" x1="244" x2="244" y1="362" y2="474" /><text font-family="sans-serif" font-size="10" text-anchor="middle" transform="rotate(-90,249,418.0)" x="249" y="418.0">28'</text><rect fill="#dddddd" height="80" stroke="black" stroke-width="2" width="120" x="265.96" y="138" /><rect fill="white" height="14" width="124.0" x="263.96" y="166.0" /><text font-family="sans-serif" font-size="10" text-anchor="middle" x="325.96" y="178.0">Garage/ADU – 2 Story</text><line marker-end="url(#id1)" marker-start="url(#id1)" stroke="black" stroke-width="1" x1="265.96" x2="385.96" y1="128" y2="128" /><text font-family="sans-serif" font-size="10" text-anchor="middle" x="325.96" y="123">30'</text><line marker-end="url(#id1)" marker-start="url(#id1)" stroke="black" stroke-width="1" x1="255.95999999999998" x2="255.95999999999998" y1="138" y2="218" /><text font-family="sans-serif" font-size="10" text-anchor="middle" transform="rotate(-90,260.96,178.0)" x="260.96" y="178.0">20'</text><line marker-end="url(#id1)" marker-start="url(#id1)" stroke="black" stroke-width="1" x1="405.96" x2="405.96" y1="218" y2="362" /><text font-family="sans-serif" font-size="10" text-anchor="middle" transform="rotate(-90,410.96,290.0)" x="410.96" y="290.0">20'</text><rect fill="#eeeeee" height="80" stroke="black" stroke-width="1" width="36" x="253.95999999999998" y="50" /><rect fill="white" height="12" width="8.8" x="267.56" y="80.0" /><text font-family="sans-serif" font-size="8" text-anchor="middle" x="271.96" y="90.0">P</text><line marker-end="url(#id1)" marker-start="url(#id1)" stroke="black" stroke-width="1" x1="253.95999999999998" x2="289.96" y1="142" y2="142" /><text font-family="sans-serif" font-size="10" text-anchor="middle" x="271.96" y="137">9'</text><line stroke="black" stroke-width="1" x1="289.96" x2="289.96" y1="50" y2="130" /><rect fill="#eeeeee" height="80" stroke="black" stroke-width="1" width="36" x="289.96" y="50" /><rect fill="white" height="12" width="8.8" x="303.56" y="80.0" /><text font-family="sans-serif" font-size="8" text-anchor="middle" x="307.96" y="90.0">P</text><line stroke="black" stroke-width="1" x1="325.96" x2="325.96" y1="50" y2="130" /><rect fill="#eeeeee" height="80" stroke="black" stroke-width="1" width="36" x="325.96" y="50" /><rect fill="white" height="12" width="8.8" x="339.56" y="80.0" /><text font-family="sans-serif" font-size="8" text-anchor="middle" x="343.96" y="90.0">P</text><line stroke="black" stroke-width="1" x1="361.96" x2="361.96" y1="50" y2="130" /><rect fill="none" height="80" stroke="black" stroke-dasharray="2,2" stroke-width="1" width="24" x="361.96" y="50" /><rect fill="white" height="12" width="8.8" x="369.56" y="80.0" /><text font-family="sans-serif" font-size="8" text-anchor="middle" x="373.96" y="90.0">T</text><line marker-end="url(#id1)" marker-start="url(#id1)" stroke="black" stroke-width="1" x1="361.96" x2="385.96" y1="142" y2="142" /><text font-family="sans-serif" font-size="10" text-anchor="middle" x="373.96" y="137">6'</text><line stroke="black" stroke-width="1" x1="385.96" x2="385.96" y1="50" y2="130" /><line marker-end="url(#id1)" marker-start="url(#id1)" stroke="black" stroke-width="1" x1="397.96" x2="397.96" y1="50" y2="130" /><text font-family="sans-serif" font-size="10" text-anchor="middle" transform="rotate(-90,402.96,90.0)" x="402.96" y="90.0">20'</text><rect fill="none" height="88" stroke="black" stroke-dasharray="4,2" stroke-width="1" width="8" x="321.96" y="50" /><line marker-end="url(#id1)" marker-start="url(#id1)" stroke="black" stroke-width="1" x1="321.96" x2="329.96" y1="94.0" y2="94.0" /><text font-family="sans-serif" font-size="10" text-anchor="middle" x="325.96" y="89.0">2'</text><line marker-end="url(#id1)" marker-start="url(#id1)" stroke="black" stroke-width="1" x1="253.95999999999998" x2="385.96" y1="40" y2="40" /><text font-family="sans-serif" font-size="10" text-anchor="middle" x="319.96" y="35">33'</text><line marker-end="url(#id1)" marker-start="url(#id1)" stroke="black" stroke-width="1" x1="243.95999999999998" x2="243.95999999999998" y1="50" y2="130" /><text font-family="sans-serif" font-size="10" text-anchor="middle" transform="rotate(-90,248.95999999999998,90.0)" x="248.95999999999998" y="90.0">20'</text><rect fill="none" height="64" stroke="gray" stroke-width="1" width="367.91999999999996" x="50" y="-14" /><text font-family="sans-serif" font-size="12" text-anchor="middle" x="233.95999999999998" y="18">Alley (South)</text><line marker-end="url(#id1)" marker-start="url(#id1)" stroke="black" stroke-width="1" x1="233.95999999999998" x2="233.95999999999998" y1="-14" y2="50" /><text font-family="sans-serif" font-size="10" text-anchor="middle" transform="rotate(-90,238.95999999999998,18.0)" x="238.95999999999998" y="18.0">16'</text><rect fill="none" height="240" stroke="gray" stroke-width="1" width="367.91999999999996" x="50" y="546" /><text font-family="sans-serif" font-size="12" text-anchor="middle" x="233.95999999999998" y="666">22nd Ave S (North)</text><line marker-end="url(#id1)" marker-start="url(#id1)" stroke="black" stroke-width="1" x1="437.91999999999996" x2="437.91999999999996" y1="546" y2="786" /><text font-family="sans-serif" font-size="10" text-anchor="middle" transform="rotate(-90,442.91999999999996,666.0)" x="442.91999999999996" y="666.0">60'</text><rect fill="none" height="496" stroke="gray" stroke-width="1" width="200" x="417.91999999999996" y="50" /><text font-family="sans-serif" font-size="12" text-anchor="middle" transform="rotate(-90,517.92,298.0)" x="517.92" y="298.0">Side Street (East)</text><line marker-end="url(#id1)" marker-start="url(#id1)" stroke="black" stroke-width="1" x1="417.91999999999996" x2="617.92" y1="566" y2="566" /><text font-family="sans-serif" font-size="10" text-anchor="middle" x="517.92" y="561">50'</text><line marker-end="url(#id1)" marker-start="url(#id1)" stroke="black" stroke-width="1" x1="424.91999999999996" x2="424.91999999999996" y1="50" y2="546" /><text font-family="sans-serif" font-size="10" text-anchor="middle" transform="rotate(-90,429.91999999999996,298.0)" x="429.91999999999996" y="298.0">124'</text><rect fill="#dddddd" height="12" stroke="black" stroke-width="2" width="20" x="297.91999999999996" y="586" /><text font-family="sans-serif" font-size="10" x="322.91999999999996" y="596">Front Duplex</text><rect fill="#dddddd" height="12" stroke="black" stroke-width="2" width="20" x="297.91999999999996" y="604" /><text font-family="sans-serif" font-size="10" x="322.91999999999996" y="614">Garage/ADU</text><rect fill="#eeeeee" height="12" stroke="black" stroke-width="1" width="20" x="297.91999999999996" y="622" /><text font-family="sans-serif" font-size="10" x="322.91999999999996" y="632">Parking</text><rect fill="none" height="12" stroke="black" stroke-dasharray="2,2" stroke-width="1" width="20" x="297.91999999999996" y="640" /><text font-family="sans-serif" font-size="10" x="322.91999999999996" y="650">Trash Pad</text><text font-family="sans-serif" font-size="10" x="297.91999999999996" y="666">P = Parking Stall (9' x 20')</text><text font-family="sans-serif" font-size="10" x="297.91999999999996" y="678">T = Trash Pad (6' x 20')</text><text font-family="sans-serif" font-size="10" x="297.91999999999996" y="690">F = Front Duplex (2-story)</text><text font-family="sans-serif" font-size="10" x="297.91999999999996" y="702">A = Garage/ADU (1 bed over garage)</text><text font-family="sans-serif" font-size="10" x="297.91999999999996" y="714">D = Driveway</text><text font-family="sans-serif" font-size="10" x="297.91999999999996" y="726">Dashed Line = Setback</text><text font-family="sans-serif" font-size="10" x="297.91999999999996" y="738">Solid Line = Structure</text></svg>
