<?xml version="1.0" encoding="utf-8" ?>
<svg baseProfile="full" height="596" version="1.1" width="468" xmlns="http://www.w3.org/2000/svg" xmlns:ev="http://www.w3.org/2001/xml-events" xmlns:xlink="http://www.w3.org/1999/xlink"><defs><marker id="id1" markerHeight="6" markerWidth="6" orient="auto" refX="5" refY="3"><path d="M0,0 L6,3 L0,6 Z" fill="black" /></marker></defs><line stroke="black" stroke-width="2" x1="418" x2="418" y1="90" y2="50" /><polygon fill="black" points="413,55 423,55 418,45" /><text font-size="12" font-weight="bold" x="408" y="65">N</text><rect fill="none" height="496" stroke="black" stroke-width="3" width="184" x="50" y="50" /><line marker-end="url(#id1)" marker-start="url(#id1)" stroke="black" stroke-width="1" x1="50" x2="234" y1="566" y2="566" /><text font-size="10" text-anchor="middle" x="142.0" y="561">46'</text><line marker-end="url(#id1)" marker-start="url(#id1)" stroke="black" stroke-width="1" x1="254" x2="254" y1="50" y2="546" /><text font-size="10" text-anchor="middle" transform="rotate(-90,259,298.0)" x="259" y="298.0">124'</text><rect fill="grey" fill-opacity="0.15" height="72" stroke="none" width="184" x="50" y="474" /><rect fill="grey" fill-opacity="0.15" height="88" stroke="none" width="184" x="50" y="50" /><rect fill="grey" fill-opacity="0.15" height="496" stroke="none" width="32" x="50" y="50" /><rect fill="grey" fill-opacity="0.15" height="496" stroke="none" width="20" x="214" y="50" /><rect fill="#cccccc" height="112" stroke="black" stroke-width="1" width="132" x="82" y="362" /><text alignment-baseline="middle" font-size="12" text-anchor="middle" x="148.0" y="418.0">Front Unit</text><line marker-end="url(#id1)" marker-start="url(#id1)" stroke="black" stroke-width="1" x1="82" x2="214" y1="352" y2="352" /><text font-size="10" text-anchor="middle" x="148.0" y="347">33'</text><line marker-end="url(#id1)" marker-start="url(#id1)" stroke="black" stroke-width="1" x1="72" x2="72" y1="362" y2="474" /><text font-size="10" text-anchor="middle" transform="rotate(-90,77,418.0)" x="77" y="418.0">28'</text><rect fill="#cccccc" height="80" stroke="black" stroke-width="1" width="120" x="82.0" y="138" /><text alignment-baseline="middle" font-size="12" text-anchor="middle" x="142.0" y="178.0">Garage/ADU</text><line marker-end="url(#id1)" marker-start="url(#id1)" stroke="black" stroke-width="1" x1="82.0" x2="202.0" y1="128" y2="128" /><text font-size="10" text-anchor="middle" x="142.0" y="123">30'</text><line marker-end="url(#id1)" marker-start="url(#id1)" stroke="black" stroke-width="1" x1="72.0" x2="72.0" y1="138" y2="218" /><text font-size="10" text-anchor="middle" transform="rotate(-90,77.0,178.0)" x="77.0" y="178.0">20'</text><rect fill="#e0e0e0" height="80" stroke="black" stroke-width="1" width="36" x="82" y="50" /><text alignment-baseline="middle" font-size="10" text-anchor="middle" x="100.0" y="90.0">Parking 1</text><rect fill="#e0e0e0" height="80" stroke="black" stroke-width="1" width="36" x="118" y="50" /><text alignment-baseline="middle" font-size="10" text-anchor="middle" x="136.0" y="90.0">Parking 2</text><rect fill="#e0e0e0" height="80" stroke="black" stroke-width="1" width="36" x="154" y="50" /><text alignment-baseline="middle" font-size="10" text-anchor="middle" x="172.0" y="90.0">Parking 3</text><rect fill="#e0e0e0" height="80" stroke="black" stroke-width="1" width="24" x="190" y="50" /><text alignment-baseline="middle" font-size="10" text-anchor="middle" x="202.0" y="90.0">Trash Pad</text><line marker-end="url(#id1)" marker-start="url(#id1)" stroke="black" stroke-width="1" x1="82" x2="214" y1="40" y2="40" /><text font-size="10" text-anchor="middle" x="148.0" y="35">33'</text><line marker-end="url(#id1)" marker-start="url(#id1)" stroke="black" stroke-width="1" x1="72" x2="72" y1="50" y2="130" /><text font-size="10" text-anchor="middle" transform="rotate(-90,77,90.0)" x="77" y="90.0">20'</text><rect fill="none" height="496" stroke="black" stroke-width="3" width="184" x="234" y="50" /><line marker-end="url(#id1)" marker-start="url(#id1)" stroke="black" stroke-width="1" x1="234" x2="418" y1="566" y2="566" /><text font-size="10" text-anchor="middle" x="326.0" y="561">46'</text><line marker-end="url(#id1)" marker-start="url(#id1)" stroke="black" stroke-width="1" x1="438" x2="438" y1="50" y2="546" /><text font-size="10" text-anchor="middle" transform="rotate(-90,443,298.0)" x="443" y="298.0">124'</text><rect fill="grey" fill-opacity="0.15" height="72" stroke="none" width="184" x="234" y="474" /><rect fill="grey" fill-opacity="0.15" height="88" stroke="none" width="184" x="234" y="50" /><rect fill="grey" fill-opacity="0.15" height="496" stroke="none" width="20" x="234" y="50" /><rect fill="grey" fill-opacity="0.15" height="496" stroke="none" width="32" x="386" y="50" /><rect fill="#cccccc" height="112" stroke="black" stroke-width="1" width="132" x="254" y="362" /><text alignment-baseline="middle" font-size="12" text-anchor="middle" x="320.0" y="418.0">Front Unit</text><line marker-end="url(#id1)" marker-start="url(#id1)" stroke="black" stroke-width="1" x1="254" x2="386" y1="352" y2="352" /><text font-size="10" text-anchor="middle" x="320.0" y="347">33'</text><line marker-end="url(#id1)" marker-start="url(#id1)" stroke="black" stroke-width="1" x1="244" x2="244" y1="362" y2="474" /><text font-size="10" text-anchor="middle" transform="rotate(-90,249,418.0)" x="249" y="418.0">28'</text><rect fill="#cccccc" height="80" stroke="black" stroke-width="1" width="120" x="266.0" y="138" /><text alignment-baseline="middle" font-size="12" text-anchor="middle" x="326.0" y="178.0">Garage/ADU</text><line marker-end="url(#id1)" marker-start="url(#id1)" stroke="black" stroke-width="1" x1="266.0" x2="386.0" y1="128" y2="128" /><text font-size="10" text-anchor="middle" x="326.0" y="123">30'</text><line marker-end="url(#id1)" marker-start="url(#id1)" stroke="black" stroke-width="1" x1="256.0" x2="256.0" y1="138" y2="218" /><text font-size="10" text-anchor="middle" transform="rotate(-90,261.0,178.0)" x="261.0" y="178.0">20'</text><rect fill="#e0e0e0" height="80" stroke="black" stroke-width="1" width="36" x="254" y="50" /><text alignment-baseline="middle" font-size="10" text-anchor="middle" x="272.0" y="90.0">Parking 1</text><rect fill="#e0e0e0" height="80" stroke="black" stroke-width="1" width="36" x="290" y="50" /><text alignment-baseline="middle" font-size="10" text-anchor="middle" x="308.0" y="90.0">Parking 2</text><rect fill="#e0e0e0" height="80" stroke="black" stroke-width="1" width="36" x="326" y="50" /><text alignment-baseline="middle" font-size="10" text-anchor="middle" x="344.0" y="90.0">Parking 3</text><rect fill="#e0e0e0" height="80" stroke="black" stroke-width="1" width="24" x="362" y="50" /><text alignment-baseline="middle" font-size="10" text-anchor="middle" x="374.0" y="90.0">Trash Pad</text><line marker-end="url(#id1)" marker-start="url(#id1)" stroke="black" stroke-width="1" x1="254" x2="386" y1="40" y2="40" /><text font-size="10" text-anchor="middle" x="320.0" y="35">33'</text><line marker-end="url(#id1)" marker-start="url(#id1)" stroke="black" stroke-width="1" x1="244" x2="244" y1="50" y2="130" /><text font-size="10" text-anchor="middle" transform="rotate(-90,249,90.0)" x="249" y="90.0">20'</text></svg>
